<svg id="Layer_1" data-name="Layer 1" xmlns="http://www.w3.org/2000/svg" xmlns:xlink="http://www.w3.org/1999/xlink" viewBox="0 0 2880 1800"><defs><style>.cls-1{fill:url(#linear-gradient);}.cls-2{fill:url(#linear-gradient-2);}.cls-3{fill:#1a1a1a;}</style><linearGradient id="linear-gradient" x1="920.74" y1="912.29" x2="1115.18" y2="912.29" gradientUnits="userSpaceOnUse"><stop offset="0" stop-color="#7100ff"/><stop offset="1" stop-color="#e100ff"/></linearGradient><linearGradient id="linear-gradient-2" x1="758.09" y1="900" x2="1277.84" y2="900" xlink:href="#linear-gradient"/></defs><circle class="cls-1" cx="1017.96" cy="912.29" r="97.22"/><path class="cls-2" d="M1228.05,789.33l-71.59-23.27a72,72,0,0,1-36-26.15L1076.21,679c-28.75-39.58-87.75-39.57-116.5,0l-44.24,60.9a72,72,0,0,1-36,26.15l-71.6,23.27c-46.52,15.12-64.75,71.22-36,110.79L816.12,961a72,72,0,0,1,13.75,42.32v75.27c0,48.92,47.73,83.59,94.25,68.48l71.59-23.27a72,72,0,0,1,44.5,0l71.59,23.27c46.52,15.11,94.25-19.56,94.25-68.48v-75.27A72,72,0,0,1,1219.8,961l44.25-60.91C1292.8,860.55,1274.57,804.44,1228.05,789.33ZM1018,1059.51c-81.17,0-147.22-66-147.22-147.22s66-147.22,147.22-147.22,147.22,66,147.22,147.22S1099.14,1059.51,1018,1059.51Z"/><path class="cls-3" d="M1382.67,858.61V673h27.84V834h106.86v24.66Z"/><path class="cls-3" d="M1652.34,843.23A81.39,81.39,0,0,1,1600.1,861a72.15,72.15,0,0,1-50.38-20.16,66.63,66.63,0,0,1-15-22.13,73.22,73.22,0,0,1-.13-55,69.56,69.56,0,0,1,14.32-22A66.77,66.77,0,0,1,1570.41,727a65.6,65.6,0,0,1,26.51-5.43,62.89,62.89,0,0,1,46.54,20.28,70.75,70.75,0,0,1,13.65,22.41,76.29,76.29,0,0,1,5,27.84v7.69H1555.56a45.62,45.62,0,0,0,45.6,38.71,56.2,56.2,0,0,0,18.83-3.18,46.61,46.61,0,0,0,15.38-8.75Zm-55.95-99.43A38.32,38.32,0,0,0,1570,753.88q-11.28,10.07-14.19,26h80.08A46.22,46.22,0,0,0,1622,754.14,36.24,36.24,0,0,0,1596.39,743.8Z"/><path class="cls-3" d="M1728.44,861q-22,0-35.8-11.41t-13.79-29.69q0-19.1,14.59-30.1t40-11a90.67,90.67,0,0,1,19.09,2,106.68,106.68,0,0,1,17.76,5.43V771.91q0-14.32-8.48-21.48t-24.4-7.16a72.76,72.76,0,0,0-19.35,2.78,145.72,145.72,0,0,0-22.54,8.62l-9.81-19.89a151.89,151.89,0,0,1,28.63-10.47,112.19,112.19,0,0,1,26.79-3.31q26.25,0,40.7,12.59t14.45,35.66v89.36h-26V846.94A63,63,0,0,1,1751,857.55,71.15,71.15,0,0,1,1728.44,861Zm-24.13-41.63q0,9.81,8.35,15.91t21.88,6.1a58.64,58.64,0,0,0,19.62-3.19,48.3,48.3,0,0,0,16.17-9.54V805.31a63.75,63.75,0,0,0-16.17-6.23,81.7,81.7,0,0,0-18.56-2q-14.32,0-22.81,6.1T1704.31,819.37Z"/><path class="cls-3" d="M1826.81,858.61v-135h26.51v17.23a41.63,41.63,0,0,1,15.65-15,44.31,44.31,0,0,1,21.48-5.17,46.09,46.09,0,0,1,7.42.53,35.69,35.69,0,0,1,6.1,1.59v23.87a54.17,54.17,0,0,0-7.69-2.13,40.46,40.46,0,0,0-8-.79,36.12,36.12,0,0,0-20.81,6.23q-9.15,6.24-14.19,18.43v90.15Z"/><path class="cls-3" d="M1925.18,858.61v-135h26.51v13.52a54.07,54.07,0,0,1,18.17-12.06,59.41,59.41,0,0,1,22.4-4.11q23.07,0,37.92,14.71t14.85,38v84.85h-26.52V778.27q0-15.91-9.15-25.06t-24.26-9.15a40.87,40.87,0,0,0-19.22,4.51,37.8,37.8,0,0,0-14.19,13v97.05Z"/><path class="cls-3" d="M1382.67,939H1463q27,0,43.61,13.39t16.57,35.67a42.15,42.15,0,0,1-6.89,23.73,46.39,46.39,0,0,1-18.82,16.3q15.1,5.84,24,17.24a41.92,41.92,0,0,1,8.88,26.51q0,23.87-17.5,38.32t-46.4,14.45h-83.79Zm78.75,23.6h-50.91v55.15h50.91q15.64,0,24.93-7.42t9.28-20.15q0-12.73-9.28-20.15T1461.42,962.6Zm2.92,138.41q17.23,0,27.58-8.35t10.34-22.14a27.15,27.15,0,0,0-10.34-22q-10.35-8.48-27.58-8.48h-53.83v61Z"/><path class="cls-3" d="M1600.1,1127q-22,0-35.8-11.41t-13.79-29.69q0-19.1,14.59-30.1t40-11a90.67,90.67,0,0,1,19.09,2,106.68,106.68,0,0,1,17.76,5.43v-14.31q0-14.33-8.48-21.48t-24.4-7.16a72.76,72.76,0,0,0-19.35,2.78,145.72,145.72,0,0,0-22.54,8.62l-9.81-19.89A151.89,151.89,0,0,1,1586,990.31a112.17,112.17,0,0,1,26.78-3.31q26.25,0,40.71,12.59t14.45,35.66v89.36h-26v-11.67a63,63,0,0,1-19.35,10.61A71.15,71.15,0,0,1,1600.1,1127ZM1576,1085.37q0,9.81,8.35,15.91t21.88,6.1a58.64,58.64,0,0,0,19.62-3.19,48.4,48.4,0,0,0,16.17-9.54v-23.34a63.75,63.75,0,0,0-16.17-6.23,81.7,81.7,0,0,0-18.56-2q-14.33,0-22.81,6.1T1576,1085.37Z"/><path class="cls-3" d="M1685.74,1107.11l14.32-17.5a89.2,89.2,0,0,0,21.61,12.6,60.25,60.25,0,0,0,22.4,4.37q14.33,0,23.34-5.57t9-14.58a13.86,13.86,0,0,0-5.3-11.4q-5.31-4.24-16.44-5.84l-24.39-3.44q-19.89-2.93-30.1-12.33T1690,1028.36q0-18.3,14.59-29.57t38.18-11.26a92.91,92.91,0,0,1,28.24,4.24,99.06,99.06,0,0,1,26.12,13l-13.53,17.5a86.18,86.18,0,0,0-21.61-10.74,69.48,69.48,0,0,0-21.08-3.31q-12.2,0-19.62,5t-7.42,13.25q0,7.43,5.17,11.27t17.1,5.7l24.39,3.45q19.89,2.92,30.36,12.46t10.48,25.19a33.9,33.9,0,0,1-4.38,16.84A41.8,41.8,0,0,1,1785,1114.8a61.64,61.64,0,0,1-17.9,8.88,72.55,72.55,0,0,1-22.27,3.32,104,104,0,0,1-32.75-5A75,75,0,0,1,1685.74,1107.11Z"/><path class="cls-3" d="M1835,967.9a15.34,15.34,0,0,1-11.4-4.9,16.33,16.33,0,0,1,0-23.07A15.34,15.34,0,0,1,1835,935a16.44,16.44,0,0,1,0,32.87Zm13.26,21.75v135h-26.52v-135Z"/><path class="cls-3" d="M1944,1103.66a45.35,45.35,0,0,0,19.09-4.11,59.31,59.31,0,0,0,17.23-12.33l15.91,17.24a78,78,0,0,1-24.39,16.57,72,72,0,0,1-28.9,6,68.38,68.38,0,0,1-64-42.29,71.47,71.47,0,0,1,14.72-77.43A68.87,68.87,0,0,1,1942.94,987a75.81,75.81,0,0,1,29.43,6,76.65,76.65,0,0,1,24.92,16.57l-16.7,18a54.94,54.94,0,0,0-17.24-12.59,47.13,47.13,0,0,0-19.88-4.38q-18.3,0-31,13.53T1899.72,1057q0,19.88,12.85,33.27A41.91,41.91,0,0,0,1944,1103.66Z"/><path class="cls-3" d="M2006.3,1107.11l14.32-17.5a89.2,89.2,0,0,0,21.61,12.6,60.26,60.26,0,0,0,22.41,4.37q14.31,0,23.33-5.57t9-14.58a13.84,13.84,0,0,0-5.31-11.4q-5.31-4.24-16.44-5.84l-24.39-3.44q-19.89-2.93-30.1-12.33t-10.2-25.06q0-18.3,14.58-29.57t38.18-11.26a92.91,92.91,0,0,1,28.24,4.24,99.06,99.06,0,0,1,26.12,13l-13.52,17.5a86.23,86.23,0,0,0-21.62-10.74,69.48,69.48,0,0,0-21.08-3.31q-12.19,0-19.62,5t-7.42,13.25q0,7.43,5.17,11.27t17.1,5.7l24.4,3.45q19.88,2.92,30.36,12.46t10.47,25.19a33.9,33.9,0,0,1-4.38,16.84,41.8,41.8,0,0,1-11.93,13.39,61.58,61.58,0,0,1-17.89,8.88,72.62,72.62,0,0,1-22.28,3.32,104,104,0,0,1-32.74-5A75,75,0,0,1,2006.3,1107.11Z"/></svg>